<svg width="74" height="30" viewBox="0 0 74 30" fill="none" xmlns="http://www.w3.org/2000/svg">
<path id="Vector" fill-rule="evenodd" clip-rule="evenodd" d="M47.9206 24.314C46.8218 22.6076 46.2404 20.6244 46.2433 18.5994C46.2471 14.5533 48.5384 10.8523 52.1713 9.0245C55.8043 7.19768 60.1621 7.55413 63.445 9.94691C66.7279 12.3397 68.3794 16.363 67.7177 20.3551L67.688 20.5637H50.4663C51.3527 23.4466 54.0217 25.4241 57.056 25.445H69.2755V0.978729H73.2288V29.3735H57.056C54.7552 29.3707 52.5184 28.6294 50.6766 27.2604C48.8339 28.6294 46.5971 29.3707 44.2963 29.3735H44.2073C38.243 29.3555 33.4128 24.5558 33.3946 18.6288V11.7832C29.6919 11.9283 26.7608 14.9458 26.7455 18.6288V29.3735H22.7922V18.6288C22.8037 12.7919 27.4924 8.02624 33.365 7.88404V0.978729H37.3182V7.85465H43.1583V11.7832H37.3182V18.6288C37.2819 21.1448 38.6571 23.4712 40.8852 24.6657C43.1134 25.8612 45.8244 25.7246 47.9206 24.314ZM21.6542 29.3442H10.8119C4.84079 29.3442 6.10352e-05 24.533 6.10352e-05 18.5994C6.10352e-05 12.6649 4.84079 7.85465 10.8119 7.85465C16.7839 7.85465 21.6246 12.6649 21.6246 18.5994V29.3442H21.6542ZM63.6745 16.6342C62.7909 13.7541 60.1162 11.7851 57.0857 11.7851C54.0552 11.7851 51.3805 13.7541 50.4969 16.6342H63.6745ZM17.7306 25.445V18.5994C17.7306 14.8178 14.6466 11.7529 10.8425 11.7529C7.03739 11.7529 3.95336 14.8178 3.95336 18.5994C3.95336 22.3801 7.03739 25.445 10.8425 25.445H17.7306Z" fill="white"/>
</svg>
