<svg width="100" height="100" viewBox="0 0 100 100" fill="none" xmlns="http://www.w3.org/2000/svg"><path d="M83.5938 43.75H56.25C53.7636 43.75 51.379 42.7623 49.6209 41.0041C47.8627 39.246 46.875 36.8614 46.875 34.375V7.03125C46.875 6.82405 46.7927 6.62534 46.6462 6.47882C46.4997 6.33231 46.301 6.25 46.0938 6.25H28.125C24.8098 6.25 21.6304 7.56696 19.2862 9.91117C16.942 12.2554 15.625 15.4348 15.625 18.75V81.25C15.625 84.5652 16.942 87.7446 19.2862 90.0888C21.6304 92.433 24.8098 93.75 28.125 93.75H71.875C75.1902 93.75 78.3696 92.433 80.7138 90.0888C83.058 87.7446 84.375 84.5652 84.375 81.25V44.5312C84.375 44.3241 84.2927 44.1253 84.1462 43.9788C83.9997 43.8323 83.8009 43.75 83.5938 43.75ZM65.625 75H34.375C33.5462 75 32.7513 74.6708 32.1653 74.0847C31.5792 73.4987 31.25 72.7038 31.25 71.875C31.25 71.0462 31.5792 70.2513 32.1653 69.6653C32.7513 69.0792 33.5462 68.75 34.375 68.75H65.625C66.4538 68.75 67.2487 69.0792 67.8347 69.6653C68.4208 70.2513 68.75 71.0462 68.75 71.875C68.75 72.7038 68.4208 73.4987 67.8347 74.0847C67.2487 74.6708 66.4538 75 65.625 75ZM65.625 59.375H34.375C33.5462 59.375 32.7513 59.0458 32.1653 58.4597C31.5792 57.8737 31.25 57.0788 31.25 56.25C31.25 55.4212 31.5792 54.6263 32.1653 54.0403C32.7513 53.4542 33.5462 53.125 34.375 53.125H65.625C66.4538 53.125 67.2487 53.4542 67.8347 54.0403C68.4208 54.6263 68.75 55.4212 68.75 56.25C68.75 57.0788 68.4208 57.8737 67.8347 58.4597C67.2487 59.0458 66.4538 59.375 65.625 59.375Z" fill="white" fill-opacity="0.1"></path><path d="M81.8788 36.8343L53.791 8.74641C53.7364 8.69211 53.6669 8.65517 53.5914 8.64023C53.5158 8.62529 53.4375 8.63302 53.3664 8.66246C53.2952 8.69189 53.2343 8.7417 53.1914 8.80564C53.1484 8.86957 53.1253 8.94478 53.125 9.0218V34.3753C53.125 35.2041 53.4542 35.999 54.0403 36.585C54.6263 37.1711 55.4212 37.5003 56.25 37.5003H81.6034C81.6805 37.5 81.7557 37.4769 81.8196 37.434C81.8835 37.391 81.9334 37.3301 81.9628 37.259C81.9922 37.1878 82 37.1095 81.985 37.0339C81.9701 36.9584 81.9331 36.8889 81.8788 36.8343Z" fill="white" fill-opacity="0.1"></path></svg>