<svg width="100" height="100" viewBox="0 0 100 100" fill="none" xmlns="http://www.w3.org/2000/svg"><path d="M71.875 18.75H28.125C27.2962 18.75 26.5013 18.4208 25.9153 17.8347C25.3292 17.2487 25 16.4538 25 15.625C25 14.7962 25.3292 14.0013 25.9153 13.4153C26.5013 12.8292 27.2962 12.5 28.125 12.5H71.875C72.7038 12.5 73.4987 12.8292 74.0847 13.4153C74.6708 14.0013 75 14.7962 75 15.625C75 16.4538 74.6708 17.2487 74.0847 17.8347C73.4987 18.4208 72.7038 18.75 71.875 18.75Z" fill="white" fill-opacity="0.1"></path><path d="M78.125 28.125H21.875C21.0462 28.125 20.2513 27.7958 19.6653 27.2097C19.0792 26.6237 18.75 25.8288 18.75 25C18.75 24.1712 19.0792 23.3763 19.6653 22.7903C20.2513 22.2042 21.0462 21.875 21.875 21.875H78.125C78.9538 21.875 79.7487 22.2042 80.3347 22.7903C80.9208 23.3763 81.25 24.1712 81.25 25C81.25 25.8288 80.9208 26.6237 80.3347 27.2097C79.7487 27.7958 78.9538 28.125 78.125 28.125Z" fill="white" fill-opacity="0.1"></path><path d="M81.8613 87.5H18.1387C15.8152 87.4974 13.5876 86.5733 11.9447 84.9303C10.3017 83.2874 9.37758 81.0598 9.375 78.7363V40.0137C9.37758 37.6902 10.3017 35.4626 11.9447 33.8197C13.5876 32.1767 15.8152 31.2526 18.1387 31.25H81.8613C84.1848 31.2526 86.4124 32.1767 88.0553 33.8197C89.6983 35.4626 90.6224 37.6902 90.625 40.0137V78.7363C90.6224 81.0598 89.6983 83.2874 88.0553 84.9303C86.4124 86.5733 84.1848 87.4974 81.8613 87.5Z" fill="white" fill-opacity="0.1"></path></svg>