<svg width="41" height="40" viewBox="0 0 41 40" fill="none" xmlns="http://www.w3.org/2000/svg">
<path fill-rule="evenodd" clip-rule="evenodd" d="M25.9648 5C25.9648 7.76142 23.7263 10 20.9648 10C18.2034 10 15.9648 7.76142 15.9648 5C15.9648 2.23858 18.2034 0 20.9648 0C23.7263 0 25.9648 2.23858 25.9648 5ZM27.6315 20C27.6315 23.6819 24.6467 26.6667 20.9648 26.6667C17.2829 26.6667 14.2982 23.6819 14.2982 20C14.2982 16.3181 17.2829 13.3333 20.9648 13.3333C24.6467 13.3333 27.6315 16.3181 27.6315 20ZM31.4703 8.63663C32.4467 9.61294 34.0296 9.61294 35.0059 8.63663C35.9822 7.66032 35.9822 6.07741 35.0059 5.1011C34.0296 4.12479 32.4467 4.12479 31.4703 5.1011C30.494 6.07741 30.494 7.66032 31.4703 8.63663ZM25.9648 35C25.9648 37.7614 23.7263 40 20.9648 40C18.2034 40 15.9648 37.7614 15.9648 35C15.9648 32.2386 18.2034 30 20.9648 30C23.7263 30 25.9648 32.2386 25.9648 35ZM6.06595 34.0411C7.04226 35.0174 8.62517 35.0174 9.60148 34.0411C10.5778 33.0648 10.5778 31.4819 9.60148 30.5056C8.62517 29.5292 7.04226 29.5292 6.06595 30.5056C5.08964 31.4819 5.08964 33.0648 6.06595 34.0411ZM40.9648 20C40.9648 22.7614 38.7263 25 35.9648 25C33.2034 25 30.9648 22.7614 30.9648 20C30.9648 17.2386 33.2034 15 35.9648 15C38.7263 15 40.9648 17.2386 40.9648 20ZM31.4703 34.0411C32.4467 35.0174 34.0296 35.0174 35.0059 34.0411C35.9822 33.0648 35.9822 31.4819 35.0059 30.5056C34.0296 29.5292 32.4467 29.5292 31.4703 30.5056C30.494 31.4819 30.494 33.0648 31.4703 34.0411ZM10.9648 20C10.9648 22.7614 8.72627 25 5.96484 25C3.20342 25 0.964844 22.7614 0.964844 20C0.964844 17.2386 3.20342 15 5.96484 15C8.72627 15 10.9648 17.2386 10.9648 20ZM6.06595 8.63663C7.04226 9.61294 8.62517 9.61294 9.60148 8.63663C10.5778 7.66032 10.5778 6.07741 9.60148 5.1011C8.62517 4.12479 7.04226 4.12479 6.06595 5.1011C5.08964 6.07741 5.08964 7.66032 6.06595 8.63663Z" fill="#886FEC"/>
</svg>
