<svg width="80" height="39" viewBox="0 0 80 39" fill="none" xmlns="http://www.w3.org/2000/svg">
<g id="SAP_AG__and__Co__KG 1" clip-path="url(#clip0_2_7)">
<g id="g8">
<g id="g10">
<path id="path12" fill-rule="evenodd" clip-rule="evenodd" d="M0.21283 38.9933H40.0503L79.0431 -7.24792e-05H0.21283V38.9933Z" fill="white"/>
<path id="path14" fill-rule="evenodd" clip-rule="evenodd" d="M47.4513 18.6594H45.7407V12.405H47.4513C49.7313 12.405 51.5458 13.1614 51.5458 15.4962C51.5458 17.9025 49.7313 18.6594 47.4513 18.6594ZM29.0618 23.1192C28.1579 23.1192 27.3072 22.9587 26.5749 22.6802L29.0359 14.9225H29.0863L31.4963 22.7026C30.7724 22.965 29.9448 23.1192 29.0618 23.1192ZM46.9947 7.3306L39.2353 7.32846V25.7754L32.4562 7.32846H25.7356L19.9468 22.7541C19.3338 18.8667 15.3093 17.5205 12.1424 16.5135C10.0483 15.8435 7.83581 14.8546 7.85548 13.7633C7.86966 12.8687 9.04631 12.0363 11.367 12.1622C12.9273 12.2463 14.3061 12.3703 17.0422 13.693L19.7437 8.99744C17.2401 7.72397 13.7845 6.92226 10.9536 6.91751H10.9347C7.63277 6.91751 4.87936 7.99026 3.17475 9.75188C1.98669 10.984 1.34539 12.5449 1.31709 14.2771C1.27468 16.6594 2.14759 18.3467 3.984 19.696C5.53004 20.8297 7.51167 21.5673 9.25797 22.111C11.411 22.7758 13.1696 23.3557 13.1479 24.5925C13.1385 25.0438 12.965 25.4621 12.6408 25.8023C12.1022 26.3579 11.2789 26.5664 10.1396 26.5886C7.93888 26.6325 6.30943 26.2885 3.71406 24.7549L1.31709 29.5141C3.90845 30.9879 6.97494 31.8508 10.1002 31.8508L10.5034 31.8478C13.2278 31.7993 15.4246 31.0197 17.1834 29.6075C17.2797 29.5303 17.3736 29.4452 17.466 29.363L16.6898 31.4437H23.736L24.9198 27.8459C26.1582 28.2635 27.5662 28.5005 29.0618 28.5005C30.5159 28.5005 31.8913 28.2777 33.1076 27.8788L34.2469 31.4437H45.7407V23.9924H48.2474C54.3073 23.9924 57.8951 20.9076 57.8951 15.7345C57.8951 9.97375 54.4112 7.3306 46.9947 7.3306Z" fill="#0A4D3D"/>
<path id="path16" d="M51.1082 36.2885V35.3879H51.7125C52.0144 35.3879 52.3404 35.4522 52.3404 35.815C52.3404 36.2652 52.0082 36.2885 51.6384 36.2885H51.1082ZM51.1082 36.664H51.6165L52.3843 37.9268H52.8815L52.0491 36.6436C52.4772 36.5932 52.8062 36.3642 52.8062 35.8419C52.8062 35.2675 52.4663 35.0126 51.7785 35.0126H50.6675V37.9268H51.1082V36.664ZM51.6448 39C53.02 39 54.1987 37.9268 54.1987 36.465C54.1987 35.0126 53.02 33.9422 51.6448 33.9422C50.2523 33.9422 49.0766 35.0126 49.0766 36.465C49.0766 37.9268 50.2523 39 51.6448 39ZM49.585 36.465C49.585 35.2675 50.4881 34.361 51.6448 34.361C52.7858 34.361 53.6906 35.2675 53.6906 36.465C53.6906 37.6826 52.7858 38.5779 51.6448 38.5779C50.4881 38.5779 49.585 37.6826 49.585 36.465Z" fill="white"/>
</g>
</g>
</g>
<defs>
<clipPath id="clip0_2_7">
<rect width="78.8298" height="39" fill="white" transform="translate(0.21283)"/>
</clipPath>
</defs>
</svg>
